<?xml version="1.0" standalone="no"?>
<!DOCTYPE svg PUBLIC "-//W3C//DTD SVG 20010904//EN"
 "http://www.w3.org/TR/2001/REC-SVG-20010904/DTD/svg10.dtd">
<svg version="1.0" xmlns="http://www.w3.org/2000/svg"
 width="900.000000pt" height="900.000000pt" viewBox="0 0 900.000000 900.000000"
 preserveAspectRatio="xMidYMid meet">

<g transform="translate(0.000000,900.000000) scale(0.100000,-0.100000)"
fill="#000000" stroke="none">
<path d="M4310 8994 c-328 -40 -545 -102 -800 -227 -522 -258 -930 -726 -1115
-1279 -82 -246 -115 -451 -115 -716 0 -335 57 -650 189 -1042 290 -862 835
-1581 1421 -1875 407 -204 816 -203 1227 3 200 101 372 231 563 428 179 184
308 352 452 587 461 751 677 1639 558 2291 -83 457 -295 862 -621 1186 -334
333 -727 535 -1208 621 -112 20 -457 34 -551 23z m-1106 -1299 c145 -301 480
-480 1031 -552 112 -14 209 -18 490 -18 376 0 535 12 861 61 93 14 203 28 244
31 299 21 506 -201 566 -607 24 -164 16 -288 -29 -470 -233 -934 -814 -1748
-1427 -1999 -165 -67 -261 -85 -445 -85 -173 1 -269 19 -417 78 -303 121 -625
398 -879 758 -297 418 -522 961 -608 1464 l-20 116 20 122 c65 381 196 702
402 979 51 69 163 197 173 197 1 0 19 -34 38 -75z"/>
<path d="M2810 4043 c-86 -9 -314 -55 -408 -82 -436 -126 -807 -341 -1131
-656 -428 -416 -687 -918 -783 -1515 -20 -125 -23 -180 -22 -395 0 -268 9
-348 60 -521 111 -386 361 -625 781 -748 213 -63 450 -97 808 -116 258 -14
4514 -13 4770 0 355 19 588 53 806 115 581 168 849 571 849 1280 0 514 -154
1023 -441 1455 -359 540 -880 922 -1501 1101 -103 30 -314 71 -419 83 l-56 6
-12 -67 c-50 -273 -295 -502 -701 -656 -282 -107 -562 -153 -930 -151 -268 1
-420 19 -657 79 -531 133 -895 422 -938 743 -5 40 -11 52 -23 50 -10 0 -33 -3
-52 -5z"/>
</g>
</svg>
